<svg width="1440" height="691" viewBox="0 0 1440 691" fill="none" xmlns="http://www.w3.org/2000/svg">
<path d="M1366.1 37.9938L1334.22 69.7049L1302.35 37.9938" stroke="#FCCC04" stroke-width="5" stroke-linecap="round"/>
<path d="M1366.1 101.416L1334.22 133.127L1302.35 101.416" stroke="#FCCC04" stroke-width="5" stroke-linecap="round"/>
<path d="M1366.1 79.9895L1334.22 111.701L1302.35 79.9895" stroke="#FCCC04" stroke-width="5" stroke-linecap="round"/>
<path d="M1366.1 59.4202L1334.22 91.1312L1302.35 59.4202" stroke="#FCCC04" stroke-width="5" stroke-linecap="round"/>
<path d="M3 454.531L34.8779 486.242L3 517.953" stroke="#0787CB" stroke-width="5" stroke-linecap="round"/>
<path d="M66.7558 454.531L98.6336 486.242L66.7558 517.953" stroke="#0787CB" stroke-width="5" stroke-linecap="round"/>
<path d="M45.2166 454.531L77.0945 486.242L45.2166 517.953" stroke="#0787CB" stroke-width="5" stroke-linecap="round"/>
<path d="M24.5391 454.531L56.417 486.242L24.5391 517.953" stroke="#0787CB" stroke-width="5" stroke-linecap="round"/>
<path d="M1443 555.143L1319.37 555.143L1382.69 496.863L1443 555.143Z" fill="#FF9E16"/>
<path d="M1443 495.149L1319.37 495.149L1382.69 436.869L1443 495.149Z" fill="#FF9E16"/>
<path d="M1443 435.155L1319.37 435.155L1382.69 376.875L1443 435.155Z" fill="#FF9E16"/>
<path d="M756.617 615.26L787.078 584.958L817.539 615.26" stroke="#FCCC04" stroke-linecap="round"/>
<path d="M756.617 615.26L787.078 584.958L817.539 615.26" stroke="#FCCC04" stroke-linecap="round"/>
<path d="M756.617 659.827L787.078 629.525L817.539 659.827" stroke="#FCCC04" stroke-linecap="round"/>
<path d="M756.617 629.83L787.078 599.528L817.539 629.83" stroke="#FCCC04" stroke-linecap="round"/>
<path d="M756.617 645.257L787.078 614.955L817.539 645.257" stroke="#FCCC04" stroke-linecap="round"/>
<path d="M721.8 549.869L691.339 580.17L660.878 549.869L691.339 549.263L721.8 549.869Z" fill="#FCCC04"/>
<path d="M721.8 511.301L691.339 541.603L660.878 511.301L691.339 510.695L721.8 511.301Z" fill="#0787CB"/>
<path d="M629 610.72L659.461 580.418L689.922 610.72L659.461 611.326L629 610.72Z" fill="#FCCC04"/>
<path d="M691.033 610.72L721.493 580.418L751.954 610.72L721.493 611.326L691.033 610.72Z" fill="#FF9E16"/>
<path d="M66.1496 30.3015L36.2979 59.9969L6.44624 30.3015L36.2979 29.7075L66.1496 30.3015Z" fill="#FCCC04"/>
<path d="M96.6105 60.6029L66.7588 90.2983L36.2979 59.9969L66.4481 59.6999L96.6105 60.6029Z" fill="#FF9E16"/>
<path d="M127.071 30.3015L96.6105 60.6029L66.1496 30.3015L96.6105 29.6954L127.071 30.3015Z" fill="#FCCC04"/>
<path d="M127.072 120.292L96.6107 150.594L66.1498 120.292L96.6107 119.686L127.072 120.292Z" fill="#FCCC04"/>
<path d="M82.0144 181.143L51.5535 211.445L21.0926 181.143L51.5535 180.537L82.0144 181.143Z" fill="#0787CB"/>
</svg>
