<svg width="1440" height="550" viewBox="0 0 1440 550" fill="none" xmlns="http://www.w3.org/2000/svg">
<path d="M63.1497 30.3015L33.298 59.9969L3.4463 30.3015L33.298 29.7075L63.1497 30.3015Z" fill="#FCCC04"/>
<path d="M93.6106 60.6029L63.7589 90.2983L33.298 59.9969L63.4482 59.6999L93.6106 60.6029Z" fill="#FF9E16"/>
<path d="M124.071 30.3015L93.6105 60.6029L63.1496 30.3015L93.6105 29.6954L124.071 30.3015Z" fill="#FCCC04"/>
<path d="M124.072 120.292L93.6106 150.594L63.1497 120.292L93.6106 119.686L124.072 120.292Z" fill="#FCCC04"/>
<path d="M79.0144 181.143L48.5535 211.445L18.0926 181.143L48.5535 180.537L79.0144 181.143Z" fill="#0787CB"/>
<path d="M753.617 474.26L784.078 443.958L814.539 474.26" stroke="#FCCC04" stroke-linecap="round"/>
<path d="M753.617 474.26L784.078 443.958L814.539 474.26" stroke="#FCCC04" stroke-linecap="round"/>
<path d="M753.617 518.827L784.078 488.525L814.539 518.827" stroke="#FCCC04" stroke-linecap="round"/>
<path d="M753.617 488.83L784.078 458.528L814.539 488.83" stroke="#FCCC04" stroke-linecap="round"/>
<path d="M753.617 504.257L784.078 473.955L814.539 504.257" stroke="#FCCC04" stroke-linecap="round"/>
<path d="M718.8 408.869L688.339 439.17L657.878 408.869L688.339 408.263L718.8 408.869Z" fill="#FCCC04"/>
<path d="M718.8 370.301L688.339 400.603L657.878 370.301L688.339 369.695L718.8 370.301Z" fill="#0787CB"/>
<path d="M626 469.72L656.461 439.418L686.922 469.72L656.461 470.326L626 469.72Z" fill="#FCCC04"/>
<path d="M688.033 469.72L718.493 439.418L748.954 469.72L718.493 470.326L688.033 469.72Z" fill="#FF9E16"/>
<path d="M1440 489.143L1316.37 489.143L1379.69 430.863L1440 489.143Z" fill="#FF9E16"/>
<path d="M1440 429.149L1316.37 429.149L1379.69 370.869L1440 429.149Z" fill="#FF9E16"/>
<path d="M1440 369.155L1316.37 369.155L1379.69 310.875L1440 369.155Z" fill="#FF9E16"/>
<path d="M0 392.531L31.8779 424.242L0 455.953" stroke="#0787CB" stroke-width="5" stroke-linecap="round"/>
<path d="M63.7557 392.531L95.6336 424.242L63.7557 455.953" stroke="#0787CB" stroke-width="5" stroke-linecap="round"/>
<path d="M42.2167 392.531L74.0946 424.242L42.2167 455.953" stroke="#0787CB" stroke-width="5" stroke-linecap="round"/>
<path d="M21.5391 392.531L53.4169 424.242L21.5391 455.953" stroke="#0787CB" stroke-width="5" stroke-linecap="round"/>
<path d="M1356.1 59.9938L1324.22 91.7049L1292.35 59.9938" stroke="#FCCC04" stroke-width="5" stroke-linecap="round"/>
<path d="M1356.1 123.416L1324.22 155.127L1292.35 123.416" stroke="#FCCC04" stroke-width="5" stroke-linecap="round"/>
<path d="M1356.1 101.99L1324.22 133.701L1292.35 101.989" stroke="#FCCC04" stroke-width="5" stroke-linecap="round"/>
<path d="M1356.1 81.4202L1324.22 113.131L1292.35 81.4202" stroke="#FCCC04" stroke-width="5" stroke-linecap="round"/>
</svg>
