<svg width="40" height="40" viewBox="0 0 40 40" fill="none" xmlns="http://www.w3.org/2000/svg">
<path d="M6.2148 1.25C6.2148 0.918479 6.34687 0.600537 6.58195 0.366117C6.81704 0.131696 7.13588 0 7.46834 0L32.5392 0C32.8716 0 33.1905 0.131696 33.4256 0.366117C33.6606 0.600537 33.7927 0.918479 33.7927 1.25C33.7927 2.595 33.7643 3.875 33.7075 5.09C34.6981 5.25358 35.6459 5.6133 36.4949 6.14795C37.3438 6.6826 38.0769 7.38136 38.6507 8.20302C39.2246 9.02468 39.6276 9.9526 39.8361 10.9321C40.0446 11.9115 40.0543 12.9227 39.8646 13.906C39.6749 14.8892 39.2897 15.8247 38.7317 16.6571C38.1737 17.4895 37.4542 18.2021 36.6156 18.7529C35.777 19.3036 34.8363 19.6813 33.849 19.8637C32.8617 20.0461 31.8477 20.0296 30.8669 19.815C28.8864 24.4775 26.1586 26.7575 23.7644 27.3425V32.775L27.337 33.665C27.8233 33.785 28.2821 34.0025 28.6833 34.3025L33.2913 37.75C33.5018 37.9074 33.6572 38.1269 33.7357 38.3773C33.8141 38.6277 33.8116 38.8964 33.7284 39.1453C33.6452 39.3942 33.4856 39.6107 33.2721 39.7641C33.0587 39.9175 32.8023 40 32.5392 40H7.46834C7.20524 40 6.94882 39.9175 6.73538 39.7641C6.52195 39.6107 6.36232 39.3942 6.27912 39.1453C6.19593 38.8964 6.19337 38.6277 6.27182 38.3773C6.35026 38.1269 6.50574 37.9074 6.71621 37.75L11.3242 34.3025C11.7254 34.0025 12.1842 33.785 12.6705 33.665L16.2431 32.775V27.3425C13.8489 26.7575 11.1212 24.4775 9.14056 19.8125C8.15926 20.0282 7.14455 20.0457 6.15636 19.8639C5.16817 19.682 4.22655 19.3046 3.38709 18.7538C2.54763 18.203 1.82737 17.4901 1.26884 16.6571C0.710306 15.8241 0.324829 14.8879 0.135173 13.9039C-0.0544825 12.9199 -0.0444712 11.9079 0.164616 10.9278C0.373703 9.94774 0.777626 9.01935 1.35253 8.19751C1.92743 7.37567 2.66166 6.67704 3.51185 6.14288C4.36204 5.60872 5.31095 5.24986 6.30255 5.0875C6.24345 3.80919 6.2142 2.52967 6.2148 1.25ZM6.463 7.6C5.15477 7.83869 3.99521 8.58584 3.23941 9.67706C2.48362 10.7683 2.19349 12.1142 2.43286 13.4187C2.67223 14.7233 3.42149 15.8796 4.51581 16.6332C5.61013 17.3869 6.95987 17.6762 8.2681 17.4375C7.43324 14.8125 6.79393 11.5725 6.463 7.6ZM31.7419 17.4375C33.0502 17.6762 34.3999 17.3869 35.4942 16.6332C36.5885 15.8796 37.3378 14.7233 37.5772 13.4187C37.8165 12.1142 37.5264 10.7683 36.7706 9.67706C36.0148 8.58584 34.8553 7.83869 33.547 7.6C33.2136 11.575 32.5743 14.8125 31.7419 17.4375Z" fill="url(#paint0_linear_110_49)"/>
<defs>
<linearGradient id="paint0_linear_110_49" x1="20" y1="0" x2="20" y2="40" gradientUnits="userSpaceOnUse">
<stop stop-color="#FCCC04"/>
<stop offset="1" stop-color="#FF9F16"/>
</linearGradient>
</defs>
</svg>
