<svg width="132" height="147" viewBox="0 0 132 147" fill="none" xmlns="http://www.w3.org/2000/svg">
<path d="M1.39355 77.8571H13.9355C13.9355 81.2829 14.8645 84.449 16.7226 87.3557C18.5806 90.3662 21.2129 92.7538 24.6194 94.5186C28.0258 96.3871 32.0516 97.3214 36.6968 97.3214C40.3097 97.3214 43.871 96.439 47.3806 94.6743C50.8903 92.9095 53.7807 90.1067 56.0516 86.2657C58.4258 82.5286 59.6129 77.6495 59.6129 71.6286V1.55715H72V71.6286C72 79.8295 70.2968 86.6809 66.8903 92.1829C63.4839 97.7886 59.0968 101.993 53.729 104.796C48.3613 107.599 42.6839 109 36.6968 109C29.7806 109 23.6387 107.702 18.271 105.107C13.0065 102.512 8.87742 98.8267 5.88387 94.0514C2.89032 89.38 1.39355 83.9819 1.39355 77.8571ZM0 37.3714C0 29.5857 1.6 22.9419 4.8 17.44C8 11.8343 12.2839 7.52619 17.6516 4.51572C23.0194 1.50524 28.9032 0 35.3032 0C41.2903 0 46.5032 1.50524 50.9419 4.51572C55.3806 7.52619 58.8387 11.8343 61.3161 17.44C63.8968 22.9419 65.1871 29.5857 65.1871 37.3714C65.1871 45.0533 63.8968 51.6971 61.3161 57.3029C58.8387 62.9086 55.3806 67.2167 50.9419 70.2271C46.5032 73.2376 41.2903 74.7429 35.3032 74.7429C28.9032 74.7429 23.0194 73.2376 17.6516 70.2271C12.2839 67.2167 8 62.9086 4.8 57.3029C1.6 51.6971 0 45.0533 0 37.3714ZM12.5419 37.3714C12.5419 42.8733 13.6258 47.5448 15.7936 51.3857C18.0645 55.2267 21.0581 58.1333 24.7742 60.1057C28.4903 62.0781 32.5161 63.0643 36.8516 63.0643C40.4645 63.0643 44.0258 62.0781 47.5355 60.1057C51.0452 58.1333 53.9355 55.2267 56.2065 51.3857C58.4774 47.5448 59.6129 42.8733 59.6129 37.3714C59.6129 33.2191 58.9419 29.5857 57.6 26.4714C56.2581 23.2533 54.4516 20.5543 52.1806 18.3743C50.0129 16.1943 47.5871 14.5333 44.9032 13.3914C42.2194 12.2495 39.5355 11.6786 36.8516 11.6786C32.5161 11.6786 28.4903 12.6648 24.7742 14.6371C21.0581 16.6095 18.0645 19.5162 15.7936 23.3571C13.6258 27.1981 12.5419 31.8695 12.5419 37.3714Z" fill="#3B4623"/>
<path d="M130.587 116.143H117.871C117.871 119.537 116.929 122.674 115.045 125.554C113.161 128.537 110.492 130.903 107.039 132.651C103.585 134.503 99.5033 135.429 94.7936 135.429C91.1305 135.429 87.5197 134.554 83.9613 132.806C80.4029 131.057 77.4724 128.28 75.1699 124.474C72.7627 120.771 71.5592 115.937 71.5592 109.971V40.5429H59V109.971C59 118.097 60.7269 124.886 64.1807 130.337C67.6344 135.891 72.0825 140.057 77.5248 142.834C82.967 145.611 88.7233 147 94.7936 147C101.806 147 108.033 145.714 113.475 143.143C118.813 140.571 122.999 136.92 126.034 132.189C129.07 127.56 130.587 122.211 130.587 116.143ZM132 76.0286C132 68.3143 130.378 61.7314 127.133 56.28C123.889 50.7257 119.546 46.4572 114.103 43.4743C108.661 40.4914 102.695 39 96.2065 39C90.1362 39 84.8509 40.4914 80.3506 43.4743C75.8502 46.4572 72.3441 50.7257 69.8323 56.28C67.2158 61.7314 65.9075 68.3143 65.9075 76.0286C65.9075 83.64 67.2158 90.2229 69.8323 95.7771C72.3441 101.331 75.8502 105.6 80.3506 108.583C84.8509 111.566 90.1362 113.057 96.2065 113.057C102.695 113.057 108.661 111.566 114.103 108.583C119.546 105.6 123.889 101.331 127.133 95.7771C130.378 90.2229 132 83.64 132 76.0286ZM119.284 76.0286C119.284 81.48 118.185 86.1086 115.987 89.9143C113.685 93.72 110.649 96.6 106.882 98.5543C103.114 100.509 99.0323 101.486 94.6366 101.486C90.9735 101.486 87.3627 100.509 83.8043 98.5543C80.2459 96.6 77.3154 93.72 75.0129 89.9143C72.7104 86.1086 71.5592 81.48 71.5592 76.0286C71.5592 71.9143 72.2395 68.3143 73.6 65.2286C74.9606 62.04 76.7921 59.3657 79.0947 57.2057C81.2925 55.0457 83.752 53.4 86.4731 52.2686C89.1943 51.1372 91.9154 50.5714 94.6366 50.5714C99.0323 50.5714 103.114 51.5486 106.882 53.5029C110.649 55.4572 113.685 58.3372 115.987 62.1429C118.185 65.9486 119.284 70.5772 119.284 76.0286Z" fill="#3B4623"/>
</svg>
